<svg id="Слой_1" xmlns="http://www.w3.org/2000/svg" viewBox="0 0 174 140"><style>.st0,.st1,.st2{fill-rule:evenodd;clip-rule:evenodd;fill:#c6c6c6}.st1,.st2{fill:#fff;stroke:#000;stroke-width:.5669;stroke-miterlimit:22.9256}.st2{fill:none;stroke-width:.8504;stroke-linecap:round}.st3{fill:#e9484c}.st3,.st4,.st5,.st6{fill-rule:evenodd;clip-rule:evenodd}.st4{stroke:#000;stroke-width:.8504;stroke-linecap:round;stroke-miterlimit:22.9256;fill:#e9484c}.st5,.st6{fill:#fff}.st6{fill:#ededed}</style><path class="st0" d="M7.9 103.4l13-6.5 48 24 81.5-40.7 13 6.5L69 133.9 7.9 103.4zM84.6 65l17.7-8.8 15.1 7.5L84.6 65z"/><path class="st1" d="M7.9 84.7l94.4-47.2 61 30.5-94.4 47.2z"/><path class="st2" d="M7.9 84.7l61 30.5M102.3 37.5l61 30.5M163.3 68l-94.4 47.2M68.9 54.2l-61 30.5m94.4-47.2L41.3 68M112.3 83.3l10 5.1M153.1 62.8l-40.8 20.5M157.7 65.3l-40.9 20.4M120.4 79.2l10.2 5.1M128.3 75.3l10.1 5"/><path class="st3" d="M42 86.8l49.9-25 12.9 6.9-9.3 4.6-6.7-3.4-30.9 15.5 6.5 3.3-9.6 4.9z"/><path class="st2" d="M75 70.5L42.3 86.8m49.9-25L60.5 77.7M42.3 86.8l12.8 6.8M81 74L58.1 85.5m31-15.6L66.5 81.3M51.7 82.1l13 6.6M64.4 89l-9.3 4.6M82.7 66.6l13 6.6M92.2 61.8l12.9 6.9M105.1 68.7l-9.3 4.6"/><path class="st3" d="M108.4 55.9l5.4-1.9 9.3 4.7.4.7-8.3 4.1-3-1.5-5.3-2.7z"/><path class="st2" d="M106.3 59l8.7 4.5M124 59.1l-8.8 4.4"/><path class="st4" d="M105.9 54.2c2.3-1.3 6.1-1.3 8.4 0 2.3 1.3 2.3 3.3 0 4.6-2.3 1.3-6.1 1.3-8.4 0-2.3-1.3-2.3-3.3 0-4.6z"/><path class="st2" d="M114.3 54.2l9.7 4.9"/><path class="st5" d="M19.9 64.5l-3.6-1.2-2.7-2.6-2-3.6-.4-4.3 1.3-2.9 1.7-.9L97.3 7.3l3.1.6 2.7 1.8 2.6 3.6 1.1 3.6-.4 3.5-1.7 2-3.6 1.9v22l-8.8 4.4-8.5-4.2-.1-12.7V33L38.3 55.8l.1 21.9-8.9 4.5-8.4-4.3V64.4z"/><path class="st6" d="M21.1 64.4l.2 14.3 8.2 3.5 1.2-.7 7.7-3.7-.1-22z"/><path class="st5" d="M25.1 43.4l4 .9 2.4 1.9 1.5 2 1.8 5.3-.6 4.2 62.3-31.2 1.6-.9.4-5-1.7-4.4-2-2.5-3.7-2.1-2-.2z"/><path class="st6" d="M83.8 32.3l.2 14.3 8.2 3.5 1.2-.7 7.7-3.7-.1-22z"/><g><path class="st2" d="M29.5 82.2V60.1M21.1 77.9l8.4 4.3M38.4 77.8l-8.9 4.4M76.8 36.5L23.2 63.3m81.5-40.9L52.6 48.6M21.1 77.9V64.4M38.4 77.7l-.1-21.9M67.7 22.2L14.1 49M97.3 7.3l-53.8 27"/><ellipse transform="rotate(-121.864 17.687 56.661)" class="st2" cx="17.7" cy="56.7" rx="8.6" ry="5.7"/><path class="st2" d="M31.8 59c.2-.1.3-.2.5-.2 2.7-1.7 2.8-6.3.3-10.3-2-3.3-5.3-5.2-7.9-4.8M104.7 22.4c2.7-1.7 2.8-6.3.3-10.3-2-3.3-5.3-5.2-7.9-4.8M96.1 26.8c2.7-1.7 2.8-6.3.3-10.3-2-3.3-5.3-5.2-7.9-4.8M92.3 50.7v-22M83.8 46.5l8.5 4.2M101.1 46.3l-8.8 4.4M83.8 46.5L83.7 33M101.1 46.3v-22"/></g><path class="st2" d="M7.9 90.5l61 30.5M163.3 73.7L68.9 121M-256.6 122.8l5.9 2.9M13.8 87.5l-5.9 3"/></svg>