<svg id="Слой_1" xmlns="http://www.w3.org/2000/svg" viewBox="0 0 158.5 140.5"><style>.st0,.st1{fill-rule:evenodd;clip-rule:evenodd;fill:#c6c6c6}.st1{fill:#fff}.st2{fill:none;stroke:#000;stroke-width:.8504;stroke-linecap:round;stroke-miterlimit:22.9256}.st2,.st3,.st4,.st5{fill-rule:evenodd;clip-rule:evenodd}.st3{stroke:#000;stroke-width:.8504;stroke-miterlimit:22.9256;fill:none}.st4,.st5{fill:#ededed}.st5{fill:#e9484c;stroke:#000;stroke-width:.5669;stroke-miterlimit:22.9256}</style><path class="st0" d="M10.4 106.3l12.3-6 43.1 21.6 73.4-36.7 12.5 5.9-85.9 43z"/><path class="st1" d="M101.5 67l17-8.1 33.2 16.6-50.2 24.6zM10.4 90.7l20.3-10.1 26-2.8 44.8 22.3-35.7 18.4z"/><path class="st2" d="M10.4 90.7l55.4 27.8M117.7 58.5l34 17M121.3 90.7l-55.5 27.7m85.9-42.9l-55.5 27.7M34.7 78.6L10.4 90.7M10.4 94.1l55.4 27.8M121.3 94.1l-55.5 27.7m85.9-42.9l-55.5 27.7"/><path class="st3" d="M10.4 90.7v3.4M151.7 75.5v3.4"/><path class="st1" d="M37.4 84.9l-3.7-1.2-2.7-2.6-1.9-3.7-.5-4.3 1.3-2.8 1.7-1 83.2-41.6 3.1.6 2.6 1.8 2.6 3.6 1.1 3.6-.4 3.4-1.6 2.1-3.7 1.8v22.1l-8.8 4.4-8.4-4.3-.1-12.6v-.9L55.7 76.1l.1 22-8.8 4.4-8.5-4.2V84.8z"/><path class="st4" d="M38.5 84.8l.3 14.3 8.2 3.4 1.2-.6 7.6-3.8-.1-22z"/><path class="st1" d="M42.5 63.8l4 .8 2.4 2 1.5 1.9 1.8 5.4-.5 4.1 62.2-31.2 1.7-.8.3-5-1.7-4.4-2-2.5-3.6-2.2-2.1-.2z"/><path class="st1" d="M101.2 52.7l.3 14.3 8.2 3.4 1.2-.6 7.6-3.8-.1-22z"/><path class="st2" d="M47 102.5v-22M38.5 98.3l8.5 4.2"/><path class="st5" d="M73.2 48.5l41.6-20.8 3.1.6 2.6 1.8 2.6 3.6 1.1 3.6-.3 2.7-.9 1.8-.8 1-3.7 1.8v22.1l-8.8 4.4-8.4-4.3V53.3l-19.9 10L82 59l-1-4-1.6-2.5-2.3-2.2z"/><path class="st2" d="M55.8 98.1l-8.8 4.4M94.2 56.9L40.7 83.7m81.5-40.9L70 69M38.5 98.3V84.8M55.8 98.1l-.1-22M85.2 42.6L31.6 69.3m83.2-41.6L61 54.7"/><ellipse transform="rotate(-121.864 35.135 77.035)" class="st2" cx="35.1" cy="77" rx="8.6" ry="5.7"/><path class="st2" d="M49.3 79.4c.2-.1.3-.2.5-.2 2.7-1.7 2.8-6.3.3-10.3-2-3.3-5.3-5.2-7.9-4.8M122.2 42.8c2.7-1.7 2.8-6.3.3-10.3-2-3.3-5.3-5.2-7.9-4.8M113.5 47.2c2.7-1.7 2.8-6.3.3-10.3-2-3.3-5.3-5.2-7.9-4.8M109.7 71.1V49M101.3 66.8l8.4 4.3M118.5 66.7l-8.8 4.4M101.3 66.8l-.1-13.5M118.5 66.7V44.6M101.3 100V32.1M46 62.3V4.5M56.7 77.8l44.8 22.3M46 4.5l55.3 27.6M79.5 64.2c.2-.1.3-.2.5-.2 2.7-1.7 2.8-6.3.3-10.3-2-3.3-5.3-5.2-7.9-4.8"/></svg>