<svg id="Слой_1" xmlns="http://www.w3.org/2000/svg" viewBox="0 0 153.8 116.2"><style>.st0,.st1,.st2,.st3{fill-rule:evenodd;clip-rule:evenodd;fill:#c6c6c6}.st1,.st2,.st3{fill:#fff}.st2,.st3{fill:#e9484c}.st3{fill:none;stroke:#000;stroke-width:.8504;stroke-linecap:round;stroke-miterlimit:22.9256}</style><path class="st0" d="M5.6 85.6l12.6-6.2 42.4 21.2 71.7-35.9 12.2 6-84.2 42.1z"/><path class="st1" d="M5.9 47.6L90.1 5.5l54.4 27.2v5.8L60.3 80.6 5.9 53.4z"/><path class="st2" d="M39.3 45.4l9.8-4.9 13.6 6.6 31.9-15.9-12.3-6.1-1.3-.7 8.8-4.4 20.4 10.3-50.6 25.3z"/><path class="st3" d="M6.2 73.4V47.6M60.6 100.6V74.8M6.2 73.4l54.4 27.2M6.2 47.6l54.4 27.2M114.9 73.4l-54.4 27.2m84.2-42.1L90.4 85.6M144.7 58.5V32.7M90.4 5.5l54.3 27.2M114.9 47.6L60.6 74.8m84.1-42.1L90.4 59.9M60.6 20.4L6.2 47.6M90.4 5.5L36 32.7M89.8 20l20.4 10.3M93.2 38.8L59.6 55.6m50.6-25.3l-31.9 16M39.3 45.4l20.3 10.2M86.2 35.4L62.7 47.1m31.9-15.9L71.3 42.8M49.1 40.4l13.6 6.7M81 24.4l13.6 6.8M48.8 40.6l-9.5 4.8M89.7 20v8.8M89.7 20L81 24.4M94.6 31.2V38M49.1 40.5v9.7M62.7 47.1V54M6.2 53.4l54.4 27.2M114.9 53.4L60.6 80.6m84.1-42.1L90.4 65.7"/></svg>