<svg id="Слой_1" xmlns="http://www.w3.org/2000/svg" viewBox="0 0 159 146"><style>.st0,.st1,.st2,.st3,.st4{fill-rule:evenodd;clip-rule:evenodd;fill:#c6c6c6}.st1,.st2,.st3,.st4{fill:#fff}.st2,.st3,.st4{stroke:#000;stroke-width:.8504;stroke-linecap:round;stroke-miterlimit:22.9256}.st3,.st4{fill:none}.st4{fill:#e9484c}</style><path class="st0" d="M14.3 113.9l13.2-7.3 40.4 20.9L137 92.9l11.9 7-81 40.5z"/><path class="st1" d="M49.7 29.2l.1 6.8 1.9 4 3.1 3.6 6.6 3.8 4.9 1.9 4.4 1.2 6.4 1.2 9.5.5 8.6-.7 8.1-1.6 6.6-2.4 4.7-2.6 3.9-3.2L121 38l.7-2.5.1-8-10.7 10.3-20.6 4.8h-.4l-21.2-1.2-.7-.3-13.7-8z"/><path class="st1" d="M14.3 60.5L57 39.2l3.1 1.4 1.3 2.1.3 1-1 3.2-41.3 20.7.6-2.4-.9-2.5-2.2-2.1z"/><path class="st2" d="M116.4 77.9l16 8-15.1 7.6-16-8 5.1-2.6z"/><path class="st3" d="M100.9 70.2l9.4 4.7-15.1 7.5-16-8c1.7-.9 3.4-1.7 5.1-2.6m0 0M122.1 34.6c-.3 4.6-4 9-10.6 12.3-14 7-36.8 7.1-50.9.1M13.5 100.3l54.4 27.2M98 58.2l54.1 27.2M122.3 100.3l-54.4 27.2m84.2-42.1l-54.4 27.2"/><path class="st2" d="M60.5 14.4c14.1-7.1 36.9-7.1 51 0 14.1 7.1 14.1 18.5 0 25.6-14.1 7.1-36.9 7.1-51 0-14.1-7.1-14.1-18.6 0-25.6zm4.3 3.2c-11.7 5-11.7 13.1 0 18 11.7 5 30.8 5 42.5 0s11.7-13.1 0-18-30.8-4.9-42.5 0z"/><path class="st3" d="M46.6 54L19.4 67.6m41.3-20.7L34.3 60.1M42 46.7L14.8 60.3M57 39.2L29.7 52.9"/><ellipse transform="rotate(-121.864 16.618 64.218)" class="st3" cx="16.6" cy="64.2" rx="4.3" ry="2.9"/><path class="st3" d="M23.8 65.4c.1 0 .2-.1.2-.1 1.4-.8 1.4-3.2.2-5.2-1-1.7-2.7-2.7-4-2.4M60.7 46.9c1.4-.8 1.4-3.2.2-5.2-1-1.7-2.7-2.7-4-2.4M122.1 25.9v8.7M52.8 41.1c-1.4-1.6-2.3-3.4-2.6-5.1M50 27.4l.1 8.6M56.8 28.6c1.3-2.3 4.1-4.3 7.9-6 11.7-5 30.8-5 42.5 0 4.1 1.7 6.9 3.9 8.1 6.3"/><path class="st2" d="M83.4 94.5l15.9 8-15.1 7.5-15.9-8 5.1-2.5zM61.2 83.4l16 8L62.1 99l-16-8 5.2-2.6z"/><path class="st3" d="M97.5 87.4l16 7.9M93.7 89.3l10.1 5M63.8 104.3l16 8M60 106.2l10 5M75.5 76.3l16 7.9M71.7 78.2l10 5M41.8 93.2l15.9 7.9M37.9 95.1l10.1 5M67.9 73.1l-54.4 27.2M98 58.2L43.3 85.4"/><path class="st4" d="M94.3 66.9l15.9 8-15.1 7.5-15.9-8 5.1-2.6z"/></svg>