<svg id="Слой_1" xmlns="http://www.w3.org/2000/svg" viewBox="0 0 159 171"><style>.st0,.st1,.st2{fill-rule:evenodd;clip-rule:evenodd;fill:#c6c6c6}.st1,.st2{fill:#fff}.st2{fill:#e9484c;stroke:#000;stroke-width:.5669;stroke-miterlimit:22.9256}.st3{stroke-linecap:round}.st3,.st4{fill-rule:evenodd;clip-rule:evenodd;fill:none;stroke:#000;stroke-width:.8504;stroke-miterlimit:22.9256}</style><path class="st0" d="M12.3 138.4l54.4 27.2 84.2-42.1-.3-.8-10.9-5.3-73 36.5-43-21.5z"/><path class="st1" d="M32.5 125.6l7.9-15.9L91.3 8.8v33.4l15.5 7.8v58.1l-15.5 7.7-7.1-3.5-.1 7.1-15.4 7.7-15.3-7.7-23.9 12z"/><path class="st2" d="M75.8 90.7V50.4l15.5-8.2 15.5 7.8v58.1l-15.5 7.7-7.1-3.5-.1-17.4z"/><path class="st3" d="M12.3 123.7l54.4 27.2M106.9 86.8l44 22M40.4 109.7l-28.1 14M53.2 119.4l15.5 7.7M84.1 119.4l-15.4 7.7M53.2 119.4V94.9M68.7 127.1v-24.4M84.1 119.4V94.9M53.2 94.9l15.5 7.8M84.1 94.9l-15.4 7.8M53.2 94.9l15.5-7.7M84.1 94.9l-15.4-7.7M84.2 112.3l7.1 3.5M106.8 108.1l-15.5 7.7M75.8 90.7V50.4M91.3 115.8V57.7M106.8 108.1V50M75.8 50l15.5 7.7M106.8 50l-15.5 7.7M75.8 50l15.5-7.8M106.8 50l-15.5-7.8M121.1 123.7l-54.4 27.2m84.2-42.1L96.5 136"/><path class="st4" d="M68.4 53.9l-38.8 77.6"/><path class="st3" d="M45.8 123.2l-16.3 8.2M53.4 119.4l-7.6 3.8"/><path class="st4" d="M91.2 8.2L68.4 53.9"/><path class="st3" d="M91.3 42.2v-34M12.3 126.7l54.4 27.2M121.1 126.7l-54.4 27.2m84.2-42.1L96.5 139"/><path class="st4" d="M12.3 123.7v3M150.9 108.8v3"/></svg>