<svg id="Слой_1" xmlns="http://www.w3.org/2000/svg" viewBox="0 0 159 140"><style>.st0{fill-rule:evenodd;clip-rule:evenodd;fill:#c6c6c6}.st1{fill:#fff;stroke:#000;stroke-width:.5669;stroke-miterlimit:22.9256}.st1,.st2,.st3,.st4{fill-rule:evenodd;clip-rule:evenodd}.st2{stroke:#000;stroke-width:.5669;stroke-miterlimit:22.9256;fill:#e9484c}.st3,.st4{fill:#ededed}.st4{fill:none;stroke:#000;stroke-width:.8504;stroke-linecap:round;stroke-miterlimit:22.9256}</style><path class="st0" d="M17.7 113.2l84.2-42.1 44.1 22-84.2 42.1z"/><path class="st1" d="M18.2 47.1L102 4.8l44 22v53.9l-84.2 42.1-44.1-22z"/><path class="st2" d="M20 50.7l39.5 19.7-.1 48.8L20 99.5z"/><path class="st3" d="M20 50.7l25.3 12.6-5.6 1.9v12.3l-9.6 4.8v12.2l12.1 6.1 9.6-4.8 7.4 3.7.2 19.7L20 99.5z"/><path class="st4" d="M61.8 122.8V68.9M17.7 100.8l44.1 22M18.2 47.1l43.6 21.8M116.1 95.6l-54.4 27.2M146 80.7l-54.4 27.2M146 80.7V26.8M102 4.8l44 22M116.1 41.7L61.8 68.9M146 26.8L91.6 54M72.1 19.7L17.7 46.9m84.2-42.1L47.6 32M30.2 94.5l-9.5 4.8M17.7 100.8V46.9M20.1 99.5l39.3 19.7M20 50.7l39.5 19.7M59.5 119.2V70.4M20 99.5V50.7M72.1 114.8V66.1M81.4 110.1V61.4M90.7 105.5V56.8M100.1 100.8V52.1M109.4 96.1V47.4M118.7 91.5V42.8M128.1 86.8V38.1M137.4 82.1V33.5M116.1 44.1L61.8 71.3M146 29.2L91.6 56.4M116.1 92.8L61.7 120M146 77.8L91.6 105M30.1 94.5l12.1 6.1M30.1 82.3l12.1 6M30.1 82.3v12.2M42.2 88.3v12.3M39.7 77.5l-9.6 4.8M51.8 83.5l-9.6 4.8M51.8 95.8l-9.6 4.8M51.8 83.5v12.3M39.7 77.5l12.1 6M39.7 77.5l12.1 6.1M39.7 65.2l12.1 6.1M39.7 65.2v12.3M51.8 71.3v12.2M44.2 63l-4.5 2.2M56.2 69.1l-4.4 2.2M59.4 79.8l-7.6 3.8M51.8 95.8l7.4 3.7M51.8 83.5l7.7 3.9"/></svg>