<?xml version="1.0" encoding="utf-8"?>
<!-- Generator: Adobe Illustrator 21.1.0, SVG Export Plug-In . SVG Version: 6.00 Build 0)  -->
<svg version="1.1" id="Слой_1" xmlns="http://www.w3.org/2000/svg" xmlns:xlink="http://www.w3.org/1999/xlink" x="0px" y="0px"
	 viewBox="0 0 17.9 17.4" style="enable-background:new 0 0 17.9 17.4;" xml:space="preserve">
<style type="text/css">
	.st0{fill-rule:evenodd;clip-rule:evenodd;fill:none;stroke:#D74B4C;stroke-linecap:round;stroke-miterlimit:22.9256;}
</style>
<line class="st0" x1="8.1" y1="4.2" x2="17" y2="4.2"/>
<line class="st0" x1="2.5" y1="10.2" x2="17" y2="10.2"/>
<line class="st0" x1="8.1" y1="13.2" x2="17" y2="13.2"/>
<path class="st0" d="M8.1,4.2c-1,0-1.8-0.8-1.8-1.8s0.8-1.8,1.8-1.8c0.5,0,1,0.2,1.3,0.6"/>
<path class="st0" d="M8.1,13.2c-1,0-1.8,0.8-1.8,1.8c0,1,0.8,1.8,1.8,1.8c0.5,0,1-0.2,1.3-0.6"/>
<path class="st0" d="M2.5,10.2c-1,0-1.8,0.8-1.8,1.8c0,1,0.8,1.8,1.8,1.8c0.5,0,1-0.2,1.3-0.6"/>
<line class="st0" x1="2.5" y1="7.2" x2="17" y2="7.2"/>
<path class="st0" d="M2.5,7.2c-1,0-1.8-0.8-1.8-1.8c0-1,0.8-1.8,1.8-1.8c0.5,0,1,0.2,1.3,0.6"/>
</svg>
