<svg id="Layer_1" xmlns="http://www.w3.org/2000/svg" xmlns:xlink="http://www.w3.org/1999/xlink" viewBox="0 0 735 134"><style>.st0{fill:#d74b4b}.st0,.st1,.st2,.st3{clip-path:url(#SVGID_2_)}.st1{fill-rule:evenodd;clip-rule:evenodd;fill:#d74b4b}.st2,.st3{fill:none;stroke:#d74b4b;stroke-width:4.3;stroke-linecap:round;stroke-linejoin:round;stroke-miterlimit:10}.st3{stroke:#000;stroke-width:.25}.st4{fill-rule:evenodd;clip-rule:evenodd;fill:#d74b4b}</style><defs><path id="SVGID_1_" d="M-126.6 471.4v-595.3H857v595.3h-983.6"/></defs><clipPath id="SVGID_2_"><use xlink:href="#SVGID_1_" overflow="visible"/></clipPath><path class="st0" d="M238.7 55.1l7.2-20 6.8 20h-14zm-30.8 19.6h23.5l2-5.6h24.1l1.9 5.6h23.8L260.3 18h-27.9l-24.5 56.7zM307.9 31.9h10.9c3.6 0 6.6.4 9 1.3 2.4.9 4.1 2.4 5.2 4.4 1.1 2 1.7 4.7 1.7 8.1 0 3.4-.6 6.1-1.7 8.1s-2.9 3.5-5.3 4.4c-2.4.9-5.3 1.3-9 1.3h-10.9V31.9zm-22-14v56.8h36.3c7.9 0 14.6-1.1 19.9-3.3 5.4-2.2 9.4-5.4 12.1-9.6 2.7-4.2 4.1-9.4 4.1-15.5s-1.4-11.3-4.1-15.5c-2.7-4.2-6.7-7.4-12.1-9.6-5.3-2.2-12-3.3-19.9-3.3h-36.3zM381.9 74.7h22.9l26-56.8h-24.5l-12.6 38-12.1-38h-24.7zM455.3 55.1l7.2-20 6.8 20h-14zm-30.8 19.6H448l2-5.6h24.1l1.9 5.6h23.7L476.8 18H449l-24.5 56.7zM502.9 74.7h20.7V41.5l23.8 33.2H572V17.9h-21.3v32.7l-21.9-32.7h-25.9zM630.8 41.8h25.1c-.3-5.4-1.9-10-4.8-13.8-2.9-3.8-7.1-6.6-12.6-8.6s-12.2-3-20.1-3c-12.7 0-22.2 2.5-28.5 7.6-6.4 5-9.6 12.5-9.6 22.3s3.2 17.3 9.6 22.3c6.4 5 15.9 7.6 28.5 7.6 11.3 0 20.1-2 26.4-6.1 6.3-4 10.1-9.9 11.2-17.7h-25.3c-.7 3.1-2.1 5.4-4.2 6.9s-4.8 2.3-8.2 2.3c-4.7 0-8.3-1.3-10.8-3.9-2.5-2.6-3.7-6.4-3.7-11.3 0-5 1.3-8.8 3.7-11.4 2.5-2.6 6.1-3.9 10.8-3.9 3.7 0 6.6.9 8.7 2.8 2.2 1.7 3.4 4.4 3.8 7.9zM663.6 74.7H724V60.1h-38.5v-7.5h30.9V38.7h-30.9v-6.8H724v-14h-60.4zM25.1 71.7h19.3V32l14.9 39.9h17.4L90.2 32v39.8h20.6V18.1H79L67.9 49.5 56.4 18.1H25.1z"/><path class="st0" d="M175.4 71.8h-18.7V31.9l-14.9 39.7h-17.4l-13.6-39.7v39.9H90.2V18.1H122l11.2 31.2 11.5-31.2h30.7z"/><path class="st1" d="M18.6 71.7h163.9v15.6H18.6z"/><path class="st1" d="M49.3 101.2V83.1c.4-3.5 3.7-6.2 7.8-6.2s7.4 2.7 7.8 6.2v18.1H49.3zM137 101.2V83.1c.4-3.5 3.6-6.2 7.7-6.2 4 0 7.3 2.7 7.6 6.2v18.1H137z"/><path class="st2" d="M17 19.9v71.3c0 6.5 4.7 11.9 10.4 11.9h145.1c5.8 0 10.4-5.3 10.4-11.9V19.9c0-6.5-4.7-11.9-10.4-11.9h-145C21.7 8 17 13.3 17 19.9z"/><path class="st4" d="M613.5 127.5l-3.5-7.8c-1.2-2.3-.7-5.3 1.8-6.4l72.7-30.9h35.3c3.8 0 4.1 2.6 1.1 3.9L620.1 129c-2.5 1-5.4.9-6.6-1.5zM583.3 110.4l-3.2-7.5c-1.2-2.3-2.2-4.9 1.2-6.7l31.8-13.8h35.3c3.8 0 4.1 2.6 1.1 3.9l-59.9 25.4c-2.6 1-5.1 1-6.3-1.3z"/></svg>