<svg xmlns="http://www.w3.org/2000/svg" xmlns:xlink="http://www.w3.org/1999/xlink" width="3" height="3" viewBox="0 0 3 3"><switch><g><defs><path id="a" d="M0 0h3v3H0z"/></defs><clipPath id="b"><use xlink:href="#a" overflow="visible"/></clipPath><path clip-path="url(#b)" fill-rule="evenodd" clip-rule="evenodd" d="M.408 1.256a.559.559 0 0 0-.212.107l-.007.006-.005.005-.005.005-.018.017-.006.006-.027.03c-.229.276-.111.604.038.883l.03.062.065.117.016.028.05.088a5.945 5.945 0 0 0 .17.286l.053.083.012.02L.563 3l.002-.002.012-.02.052-.083.035-.057a2.85 2.85 0 0 1 .035-.057c.032-.054.069-.114.1-.171l.05-.088.016-.028.065-.118.03-.062c.149-.278.267-.606.038-.883l-.027-.03C.968 1.4.967 1.398.965 1.396l-.018-.017-.006-.005-.005-.005a.56.56 0 0 0-.217-.113.586.586 0 0 0-.311 0m.155.391a.135.135 0 1 1 0 .271.135.135 0 1 1 0-.271"/></g></switch></svg>