<svg id="Layer_1" xmlns="http://www.w3.org/2000/svg" viewBox="0 0 31 46"><style>.st0{fill-rule:evenodd;clip-rule:evenodd;fill:#231f20}</style><path class="st0" d="M11.6.6c-1.3.3-2.4.8-3.4 1.3-.7.4-1.5 1-2.1 1.5 0 0-.1 0-.1.1-.1 0-.1.1-.2.1 0 .1-.1.1-.1.2l-.5.4c0 .1-.1.1-.2.2l-.6.8c-6 7.2-2.9 15.8 1 23l.8 1.6c.5.9 1.2 2.2 1.7 3.1.2.3.3.5.4.8L9.6 36c.8 1.5 1.7 3 2.6 4.5l.9 1.5.9 1.5c.5.7.9 1.4 1.4 2.1.1.1.2.4.3.5l.1.1.1-.1c.1-.2.3-.5.3-.5.4-.7.9-1.4 1.3-2.1l.9-1.5.9-1.5c.8-1.5 1.8-3 2.6-4.5l1.3-2.3c.1-.3.3-.5.4-.8.5-.9 1.2-2.2 1.7-3.1l.8-1.6c3.9-7.2 7-15.8 1-23l-.7-.8-.2-.2-.5-.4c-.1-.1-.1-.1-.2-.1-.1-.1-.1-.1-.2-.1l-.2-.2c-.6-.5-1.4-1.1-2.1-1.4-1-.5-2.1-1-3.4-1.3-2.6-.9-5.2-.9-8-.1m4.1 10.2c2 0 3.6 1.6 3.6 3.5 0 2-1.6 3.5-3.6 3.5-1.9 0-3.5-1.6-3.5-3.5s1.6-3.5 3.5-3.5"/></svg>