<svg xmlns="http://www.w3.org/2000/svg" xmlns:xlink="http://www.w3.org/1999/xlink" width="147.776" height="147.805" viewBox="0 0 147.776 147.805"><switch><g><defs><path id="a" d="M2.139 2.139h145.638v145.667H2.139z"/></defs><clipPath id="b"><use xlink:href="#a" overflow="visible"/></clipPath><path clip-path="url(#b)" fill-rule="evenodd" clip-rule="evenodd" fill="#050008" d="M93.681 107.566c4.464 3.029 28.892 28.207 35.784 35.256 12.248 12.521 25.87-1.048 13.318-13.32l-35.467-35.733c6.011-12.871 13.063-21.928 9.854-42.565-7.025-45.187-62.263-66.113-97.56-32.512C-1.712 38.987-3.975 71.112 15.337 96.7c12.142 16.088 36.267 25.19 58.794 19.4 3.545-.911 6.792-2.02 9.854-3.45 3.329-1.554 6.452-3.847 9.696-5.084M53.353 16.494c25.854-4.265 46.376 14.422 50.187 35.824 4.783 26.839-14.213 47.591-36.135 51.312-57.107 9.698-73.307-77.364-14.052-87.136"/></g></switch></svg>