<?xml version="1.0" encoding="utf-8"?>
<!-- Generator: Adobe Illustrator 21.1.0, SVG Export Plug-In . SVG Version: 6.00 Build 0)  -->
<svg version="1.1" id="Слой_1" xmlns="http://www.w3.org/2000/svg" xmlns:xlink="http://www.w3.org/1999/xlink" x="0px" y="0px"
	 viewBox="0 0 21.6 13.3" style="enable-background:new 0 0 21.6 13.3;" xml:space="preserve">
<style type="text/css">
	.st0{fill-rule:evenodd;clip-rule:evenodd;fill:none;stroke:#D74B4C;stroke-linecap:round;stroke-miterlimit:22.9256;}
</style>
<path class="st0" d="M7.4,11.5c0.9-0.8,2.1-1.2,3.3-1.2c1.3,0,2.5,0.4,3.3,1.2"/>
<path class="st0" d="M0.7,11.5c0.9,0.8,2.1,1.2,3.3,1.2c1.3,0,2.5-0.4,3.3-1.2"/>
<path class="st0" d="M7.4,6.9c0.9-0.8,2.1-1.2,3.3-1.2c1.3,0,2.5,0.4,3.3,1.2"/>
<path class="st0" d="M0.7,6.9c0.9,0.8,2.1,1.2,3.3,1.2c1.3,0,2.5-0.4,3.3-1.2"/>
<path class="st0" d="M7.4,2.3c0.9-0.8,2.1-1.2,3.3-1.2c1.3,0,2.5,0.4,3.3,1.2"/>
<path class="st0" d="M0.7,2.3c0.9,0.8,2.1,1.2,3.3,1.2c1.3,0,2.5-0.4,3.3-1.2"/>
<path class="st0" d="M14,11.5c0.9,0.8,2.1,1.2,3.3,1.2c1.3,0,2.5-0.4,3.3-1.2"/>
<path class="st0" d="M14,6.9c0.9,0.8,2.1,1.2,3.3,1.2c1.3,0,2.5-0.4,3.3-1.2"/>
<path class="st0" d="M14,2.3c0.9,0.8,2.1,1.2,3.3,1.2c1.3,0,2.5-0.4,3.3-1.2"/>
</svg>
