<?xml version="1.0" encoding="utf-8"?>
<!-- Generator: Adobe Illustrator 19.1.0, SVG Export Plug-In . SVG Version: 6.00 Build 0)  -->
<svg version="1.1" id="Слой_1" xmlns="http://www.w3.org/2000/svg" xmlns:xlink="http://www.w3.org/1999/xlink" x="0px" y="0px"
	 viewBox="0 0 174 140" style="enable-background:new 0 0 174 140;" xml:space="preserve">
<style type="text/css">
	.st0{fill-rule:evenodd;clip-rule:evenodd;fill:#C6C6C6;}
	.st1{fill-rule:evenodd;clip-rule:evenodd;fill:#FFFFFF;stroke:#000000;stroke-width:0.5669;stroke-miterlimit:22.9256;}
	
		.st2{fill-rule:evenodd;clip-rule:evenodd;fill:none;stroke:#000000;stroke-width:0.8504;stroke-linecap:round;stroke-miterlimit:22.9256;}
	.st3{fill-rule:evenodd;clip-rule:evenodd;fill:#E9484C;}
	
		.st4{fill-rule:evenodd;clip-rule:evenodd;fill:#E9484C;stroke:#000000;stroke-width:0.8504;stroke-linecap:round;stroke-miterlimit:22.9256;}
	.st5{fill-rule:evenodd;clip-rule:evenodd;fill:#FFFFFF;}
	.st6{fill-rule:evenodd;clip-rule:evenodd;fill:#EDEDED;}
</style>
<path class="st0" d="M7.9,103.4l13-6.5l48,24l81.5-40.7l13,6.5l-94.4,47.2L7.9,103.4L7.9,103.4z M84.6,65l17.7-8.8l15.1,7.5L84.6,65
	z"/>
<polygon class="st1" points="7.9,84.7 102.3,37.5 163.3,68 68.9,115.2 "/>
<line class="st2" x1="7.9" y1="84.7" x2="68.9" y2="115.2"/>
<line class="st2" x1="102.3" y1="37.5" x2="163.3" y2="68"/>
<line class="st2" x1="163.3" y1="68" x2="68.9" y2="115.2"/>
<path class="st2" d="M68.9,54.2l-61,30.5 M102.3,37.5L41.3,68"/>
<line class="st2" x1="112.3" y1="83.3" x2="122.3" y2="88.4"/>
<line class="st2" x1="153.1" y1="62.8" x2="112.3" y2="83.3"/>
<line class="st2" x1="157.7" y1="65.3" x2="116.8" y2="85.7"/>
<line class="st2" x1="120.4" y1="79.2" x2="130.6" y2="84.3"/>
<line class="st2" x1="128.3" y1="75.3" x2="138.4" y2="80.3"/>
<g>
	<polygon class="st3" points="42,86.8 91.9,61.8 104.8,68.7 95.5,73.3 88.8,69.9 57.9,85.4 64.4,88.7 54.8,93.6 	"/>
	<path class="st2" d="M75,70.5L42.3,86.8 M92.2,61.8L60.5,77.7"/>
	<line class="st2" x1="42.3" y1="86.8" x2="55.1" y2="93.6"/>
	<path class="st2" d="M81,74L58.1,85.5 M89.1,69.9L66.5,81.3"/>
	<line class="st2" x1="51.7" y1="82.1" x2="64.7" y2="88.7"/>
	<line class="st2" x1="64.4" y1="89" x2="55.1" y2="93.6"/>
	<line class="st2" x1="82.7" y1="66.6" x2="95.7" y2="73.2"/>
	<line class="st2" x1="92.2" y1="61.8" x2="105.1" y2="68.7"/>
	<line class="st2" x1="105.1" y1="68.7" x2="95.8" y2="73.3"/>
</g>
<g>
	<polygon class="st3" points="108.4,55.9 113.8,54 123.1,58.7 123.5,59.4 115.2,63.5 112.2,62 106.9,59.3 	"/>
	<line class="st2" x1="106.3" y1="59" x2="115" y2="63.5"/>
	<line class="st2" x1="124" y1="59.1" x2="115.2" y2="63.5"/>
	<path class="st4" d="M105.9,54.2c2.3-1.3,6.1-1.3,8.4,0c2.3,1.3,2.3,3.3,0,4.6c-2.3,1.3-6.1,1.3-8.4,0
		C103.6,57.5,103.6,55.5,105.9,54.2z"/>
	<line class="st2" x1="114.3" y1="54.2" x2="124" y2="59.1"/>
</g>
<polygon class="st5" points="19.9,64.5 16.3,63.3 13.6,60.7 11.6,57.1 11.2,52.8 12.5,49.9 14.2,49 97.3,7.3 100.4,7.9 103.1,9.7 
	105.7,13.3 106.8,16.9 106.4,20.4 104.7,22.4 101.1,24.3 101.1,46.3 92.3,50.7 83.8,46.5 83.7,33.8 83.7,33 38.3,55.8 38.4,77.7 
	29.5,82.2 21.1,77.9 21.1,64.4 "/>
<polygon class="st6" points="21.1,64.4 21.3,78.7 29.5,82.2 30.7,81.5 38.4,77.8 38.3,55.8 "/>
<polygon class="st5" points="25.1,43.4 29.1,44.3 31.5,46.2 33,48.2 34.8,53.5 34.2,57.7 96.5,26.5 98.1,25.6 98.5,20.6 96.8,16.2 
	94.8,13.7 91.1,11.6 89.1,11.4 "/>
<polygon class="st6" points="83.8,32.3 84,46.6 92.2,50.1 93.4,49.4 101.1,45.7 101,23.7 "/>
<g>
	<line class="st2" x1="29.5" y1="82.2" x2="29.5" y2="60.1"/>
	<line class="st2" x1="21.1" y1="77.9" x2="29.5" y2="82.2"/>
	<line class="st2" x1="38.4" y1="77.8" x2="29.5" y2="82.2"/>
	<path class="st2" d="M76.8,36.5L23.2,63.3 M104.7,22.4L52.6,48.6"/>
	<line class="st2" x1="21.1" y1="77.9" x2="21.1" y2="64.4"/>
	<line class="st2" x1="38.4" y1="77.7" x2="38.3" y2="55.8"/>
	<path class="st2" d="M67.7,22.2L14.1,49 M97.3,7.3L43.5,34.3"/>
	
		<ellipse transform="matrix(-0.5279 -0.8493 0.8493 -0.5279 -21.0981 101.5944)" class="st2" cx="17.7" cy="56.7" rx="8.6" ry="5.7"/>
	<path class="st2" d="M31.8,59c0.2-0.1,0.3-0.2,0.5-0.2c2.7-1.7,2.8-6.3,0.3-10.3c-2-3.3-5.3-5.2-7.9-4.8"/>
	<path class="st2" d="M104.7,22.4c2.7-1.7,2.8-6.3,0.3-10.3c-2-3.3-5.3-5.2-7.9-4.8"/>
	<path class="st2" d="M96.1,26.8c2.7-1.7,2.8-6.3,0.3-10.3c-2-3.3-5.3-5.2-7.9-4.8"/>
	<line class="st2" x1="92.3" y1="50.7" x2="92.3" y2="28.7"/>
	<line class="st2" x1="83.8" y1="46.5" x2="92.3" y2="50.7"/>
	<line class="st2" x1="101.1" y1="46.3" x2="92.3" y2="50.7"/>
	<line class="st2" x1="83.8" y1="46.5" x2="83.7" y2="33"/>
	<line class="st2" x1="101.1" y1="46.3" x2="101.1" y2="24.3"/>
</g>
<line class="st2" x1="7.9" y1="90.5" x2="68.9" y2="121"/>
<line class="st2" x1="163.3" y1="73.7" x2="68.9" y2="121"/>
<line class="st2" x1="-256.6" y1="122.8" x2="-250.7" y2="125.7"/>
<line class="st2" x1="13.8" y1="87.5" x2="7.9" y2="90.5"/>
</svg>
