<?xml version="1.0" encoding="utf-8"?>
<!-- Generator: Adobe Illustrator 19.1.0, SVG Export Plug-In . SVG Version: 6.00 Build 0)  -->
<svg version="1.1" id="Слой_1" xmlns="http://www.w3.org/2000/svg" xmlns:xlink="http://www.w3.org/1999/xlink" x="0px" y="0px"
	 viewBox="0 0 158.5 140.5" style="enable-background:new 0 0 158.5 140.5;" xml:space="preserve">
<style type="text/css">
	.st0{fill-rule:evenodd;clip-rule:evenodd;fill:#C6C6C6;}
	.st1{fill-rule:evenodd;clip-rule:evenodd;fill:#FFFFFF;}
	
		.st2{fill-rule:evenodd;clip-rule:evenodd;fill:none;stroke:#000000;stroke-width:0.8504;stroke-linecap:round;stroke-miterlimit:22.9256;}
	.st3{fill-rule:evenodd;clip-rule:evenodd;fill:none;stroke:#000000;stroke-width:0.8504;stroke-miterlimit:22.9256;}
	.st4{fill-rule:evenodd;clip-rule:evenodd;fill:#EDEDED;}
	.st5{fill-rule:evenodd;clip-rule:evenodd;fill:#E9484C;stroke:#000000;stroke-width:0.5669;stroke-miterlimit:22.9256;}
</style>
<polygon class="st0" points="10.4,106.3 22.7,100.3 65.8,121.9 139.2,85.2 151.7,91.1 65.8,134.1 "/>
<polygon class="st1" points="101.5,67 118.5,58.9 151.7,75.5 101.5,100.1 "/>
<polygon class="st1" points="10.4,90.7 30.7,80.6 56.7,77.8 101.5,100.1 65.8,118.5 "/>
<line class="st2" x1="10.4" y1="90.7" x2="65.8" y2="118.5"/>
<line class="st2" x1="117.7" y1="58.5" x2="151.7" y2="75.5"/>
<path class="st2" d="M121.3,90.7l-55.5,27.7 M151.7,75.5l-55.5,27.7"/>
<line class="st2" x1="34.7" y1="78.6" x2="10.4" y2="90.7"/>
<line class="st2" x1="10.4" y1="94.1" x2="65.8" y2="121.9"/>
<path class="st2" d="M121.3,94.1l-55.5,27.7 M151.7,78.9l-55.5,27.7"/>
<line class="st3" x1="10.4" y1="90.7" x2="10.4" y2="94.1"/>
<line class="st3" x1="151.7" y1="75.5" x2="151.7" y2="78.9"/>
<polygon class="st1" points="37.4,84.9 33.7,83.7 31,81.1 29.1,77.4 28.6,73.1 29.9,70.3 31.6,69.3 114.8,27.7 117.9,28.3 
	120.5,30.1 123.1,33.7 124.2,37.3 123.8,40.7 122.2,42.8 118.5,44.6 118.5,66.7 109.7,71.1 101.3,66.8 101.2,54.2 101.2,53.3 
	55.7,76.1 55.8,98.1 47,102.5 38.5,98.3 38.5,84.8 "/>
<polygon class="st4" points="38.5,84.8 38.8,99.1 47,102.5 48.2,101.9 55.8,98.1 55.7,76.1 "/>
<polygon class="st1" points="42.5,63.8 46.5,64.6 48.9,66.6 50.4,68.5 52.2,73.9 51.7,78 113.9,46.8 115.6,46 115.9,41 114.2,36.6 
	112.2,34.1 108.6,31.9 106.5,31.7 "/>
<polygon class="st1" points="101.2,52.7 101.5,67 109.7,70.4 110.9,69.8 118.5,66 118.4,44 "/>
<line class="st2" x1="47" y1="102.5" x2="47" y2="80.5"/>
<line class="st2" x1="38.5" y1="98.3" x2="47" y2="102.5"/>
<polygon class="st5" points="73.2,48.5 114.8,27.7 117.9,28.3 120.5,30.1 123.1,33.7 124.2,37.3 123.9,40 123,41.8 122.2,42.8 
	118.5,44.6 118.5,66.7 109.7,71.1 101.3,66.8 101.3,53.3 81.4,63.3 82,59 81,55 79.4,52.5 77.1,50.3 "/>
<line class="st2" x1="55.8" y1="98.1" x2="47" y2="102.5"/>
<path class="st2" d="M94.2,56.9L40.7,83.7 M122.2,42.8L70,69"/>
<line class="st2" x1="38.5" y1="98.3" x2="38.5" y2="84.8"/>
<line class="st2" x1="55.8" y1="98.1" x2="55.7" y2="76.1"/>
<path class="st2" d="M85.2,42.6L31.6,69.3 M114.8,27.7L61,54.7"/>
<ellipse transform="matrix(-0.5279 -0.8493 0.8493 -0.5279 -11.7428 147.5413)" class="st2" cx="35.1" cy="77" rx="8.6" ry="5.7"/>
<path class="st2" d="M49.3,79.4c0.2-0.1,0.3-0.2,0.5-0.2c2.7-1.7,2.8-6.3,0.3-10.3c-2-3.3-5.3-5.2-7.9-4.8"/>
<path class="st2" d="M122.2,42.8c2.7-1.7,2.8-6.3,0.3-10.3c-2-3.3-5.3-5.2-7.9-4.8"/>
<path class="st2" d="M113.5,47.2c2.7-1.7,2.8-6.3,0.3-10.3c-2-3.3-5.3-5.2-7.9-4.8"/>
<line class="st2" x1="109.7" y1="71.1" x2="109.7" y2="49"/>
<line class="st2" x1="101.3" y1="66.8" x2="109.7" y2="71.1"/>
<line class="st2" x1="118.5" y1="66.7" x2="109.7" y2="71.1"/>
<line class="st2" x1="101.3" y1="66.8" x2="101.2" y2="53.3"/>
<line class="st2" x1="118.5" y1="66.7" x2="118.5" y2="44.6"/>
<line class="st2" x1="101.3" y1="100" x2="101.3" y2="32.1"/>
<line class="st2" x1="46" y1="62.3" x2="46" y2="4.5"/>
<line class="st2" x1="56.7" y1="77.8" x2="101.5" y2="100.1"/>
<line class="st2" x1="46" y1="4.5" x2="101.3" y2="32.1"/>
<path class="st2" d="M79.5,64.2c0.2-0.1,0.3-0.2,0.5-0.2c2.7-1.7,2.8-6.3,0.3-10.3c-2-3.3-5.3-5.2-7.9-4.8"/>
</svg>
