<?xml version="1.0" encoding="utf-8"?>
<!-- Generator: Adobe Illustrator 19.1.0, SVG Export Plug-In . SVG Version: 6.00 Build 0)  -->
<svg version="1.1" id="Слой_1" xmlns="http://www.w3.org/2000/svg" xmlns:xlink="http://www.w3.org/1999/xlink" x="0px" y="0px"
	 viewBox="0 0 153.8 116.2" style="enable-background:new 0 0 153.8 116.2;" xml:space="preserve">
<style type="text/css">
	.st0{fill-rule:evenodd;clip-rule:evenodd;fill:#C6C6C6;}
	.st1{fill-rule:evenodd;clip-rule:evenodd;fill:#FFFFFF;}
	.st2{fill-rule:evenodd;clip-rule:evenodd;fill:#E9484C;}
	
		.st3{fill-rule:evenodd;clip-rule:evenodd;fill:none;stroke:#000000;stroke-width:0.8504;stroke-linecap:round;stroke-miterlimit:22.9256;}
</style>
<polygon class="st0" points="5.6,85.6 18.2,79.4 60.6,100.6 132.3,64.7 144.5,70.7 60.3,112.8 "/>
<polygon class="st1" points="5.9,47.6 90.1,5.5 144.5,32.7 144.5,38.5 60.3,80.6 5.9,53.4 "/>
<polygon class="st2" points="39.3,45.4 49.1,40.5 62.7,47.1 94.6,31.2 82.3,25.1 81,24.4 89.8,20 110.2,30.3 59.6,55.6 "/>
<line class="st3" x1="6.2" y1="73.4" x2="6.2" y2="47.6"/>
<line class="st3" x1="60.6" y1="100.6" x2="60.6" y2="74.8"/>
<line class="st3" x1="6.2" y1="73.4" x2="60.6" y2="100.6"/>
<line class="st3" x1="6.2" y1="47.6" x2="60.6" y2="74.8"/>
<path class="st3" d="M114.9,73.4l-54.4,27.2 M144.7,58.5L90.4,85.6"/>
<line class="st3" x1="144.7" y1="58.5" x2="144.7" y2="32.7"/>
<line class="st3" x1="90.4" y1="5.5" x2="144.7" y2="32.7"/>
<path class="st3" d="M114.9,47.6L60.6,74.8 M144.7,32.7L90.4,59.9"/>
<path class="st3" d="M60.6,20.4L6.2,47.6 M90.4,5.5L36,32.7"/>
<line class="st3" x1="89.8" y1="20" x2="110.2" y2="30.3"/>
<path class="st3" d="M93.2,38.8L59.6,55.6 M110.2,30.3l-31.9,16"/>
<line class="st3" x1="39.3" y1="45.4" x2="59.6" y2="55.6"/>
<path class="st3" d="M86.2,35.4L62.7,47.1 M94.6,31.2L71.3,42.8"/>
<line class="st3" x1="49.1" y1="40.4" x2="62.7" y2="47.1"/>
<line class="st3" x1="81" y1="24.4" x2="94.6" y2="31.2"/>
<line class="st3" x1="48.8" y1="40.6" x2="39.3" y2="45.4"/>
<line class="st3" x1="89.7" y1="20" x2="89.7" y2="28.8"/>
<line class="st3" x1="89.7" y1="20" x2="81" y2="24.4"/>
<line class="st3" x1="94.6" y1="31.2" x2="94.6" y2="38"/>
<line class="st3" x1="49.1" y1="40.5" x2="49.1" y2="50.2"/>
<line class="st3" x1="62.7" y1="47.1" x2="62.7" y2="54"/>
<line class="st3" x1="6.2" y1="53.4" x2="60.6" y2="80.6"/>
<path class="st3" d="M114.9,53.4L60.6,80.6 M144.7,38.5L90.4,65.7"/>
</svg>
