<?xml version="1.0" encoding="utf-8"?>
<!-- Generator: Adobe Illustrator 19.1.0, SVG Export Plug-In . SVG Version: 6.00 Build 0)  -->
<svg version="1.1" id="Слой_1" xmlns="http://www.w3.org/2000/svg" xmlns:xlink="http://www.w3.org/1999/xlink" x="0px" y="0px"
	 viewBox="0 0 159 146" style="enable-background:new 0 0 159 146;" xml:space="preserve">
<style type="text/css">
	.st0{fill-rule:evenodd;clip-rule:evenodd;fill:#C6C6C6;}
	.st1{fill-rule:evenodd;clip-rule:evenodd;fill:#FFFFFF;}
	
		.st2{fill-rule:evenodd;clip-rule:evenodd;fill:#FFFFFF;stroke:#000000;stroke-width:0.8504;stroke-linecap:round;stroke-miterlimit:22.9256;}
	
		.st3{fill-rule:evenodd;clip-rule:evenodd;fill:none;stroke:#000000;stroke-width:0.8504;stroke-linecap:round;stroke-miterlimit:22.9256;}
	
		.st4{fill-rule:evenodd;clip-rule:evenodd;fill:#E9484C;stroke:#000000;stroke-width:0.8504;stroke-linecap:round;stroke-miterlimit:22.9256;}
</style>
<polygon class="st0" points="14.3,113.9 27.5,106.6 67.9,127.5 137,92.9 148.9,99.9 67.9,140.4 "/>
<polygon class="st1" points="49.7,29.2 49.8,36 51.7,40 54.8,43.6 61.4,47.4 66.3,49.3 70.7,50.5 77.1,51.7 86.6,52.2 95.2,51.5 
	103.3,49.9 109.9,47.5 114.6,44.9 118.5,41.7 121,38 121.7,35.5 121.8,27.5 111.1,37.8 90.5,42.6 90.1,42.6 68.9,41.4 68.2,41.1 
	54.5,33.1 "/>
<polygon class="st1" points="14.3,60.5 57,39.2 60.1,40.6 61.4,42.7 61.7,43.7 60.7,46.9 19.4,67.6 20,65.2 19.1,62.7 16.9,60.6 "/>
<polygon class="st2" points="116.4,77.9 132.4,85.9 117.3,93.5 101.3,85.5 106.4,82.9 106.4,82.9 "/>
<path class="st3" d="M100.9,70.2l9.4,4.7l-15.1,7.5l-16-8c1.7-0.9,3.4-1.7,5.1-2.6 M84.3,71.8L84.3,71.8"/>
<path class="st3" d="M122.1,34.6c-0.3,4.6-4,9-10.6,12.3c-14,7-36.8,7.1-50.9,0.1"/>
<line class="st3" x1="13.5" y1="100.3" x2="67.9" y2="127.5"/>
<line class="st3" x1="98" y1="58.2" x2="152.1" y2="85.4"/>
<path class="st3" d="M122.3,100.3l-54.4,27.2 M152.1,85.4l-54.4,27.2"/>
<path class="st2" d="M60.5,14.4c14.1-7.1,36.9-7.1,51,0c14.1,7.1,14.1,18.5,0,25.6c-14.1,7.1-36.9,7.1-51,0
	C46.4,32.9,46.4,21.4,60.5,14.4L60.5,14.4z M64.8,17.6c-11.7,5-11.7,13.1,0,18c11.7,5,30.8,5,42.5,0c11.7-5,11.7-13.1,0-18
	C95.6,12.7,76.5,12.7,64.8,17.6z"/>
<path class="st3" d="M46.6,54L19.4,67.6 M60.7,46.9L34.3,60.1"/>
<path class="st3" d="M42,46.7L14.8,60.3 M57,39.2L29.7,52.9"/>
<ellipse transform="matrix(-0.5279 -0.8493 0.8493 -0.5279 -29.1489 112.2324)" class="st3" cx="16.6" cy="64.2" rx="4.3" ry="2.9"/>
<path class="st3" d="M23.8,65.4c0.1,0,0.2-0.1,0.2-0.1c1.4-0.8,1.4-3.2,0.2-5.2c-1-1.7-2.7-2.7-4-2.4"/>
<path class="st3" d="M60.7,46.9c1.4-0.8,1.4-3.2,0.2-5.2c-1-1.7-2.7-2.7-4-2.4"/>
<line class="st3" x1="122.1" y1="25.9" x2="122.1" y2="34.6"/>
<path class="st3" d="M52.8,41.1c-1.4-1.6-2.3-3.4-2.6-5.1"/>
<line class="st3" x1="50" y1="27.4" x2="50.1" y2="36"/>
<path class="st3" d="M56.8,28.6c1.3-2.3,4.1-4.3,7.9-6c11.7-5,30.8-5,42.5,0c4.1,1.7,6.9,3.9,8.1,6.3"/>
<polygon class="st2" points="83.4,94.5 99.3,102.5 84.2,110 68.3,102 73.4,99.5 73.4,99.5 "/>
<polygon class="st2" points="61.2,83.4 77.2,91.4 62.1,99 46.1,91 51.3,88.4 51.3,88.4 "/>
<line class="st3" x1="97.5" y1="87.4" x2="113.5" y2="95.3"/>
<line class="st3" x1="93.7" y1="89.3" x2="103.8" y2="94.3"/>
<line class="st3" x1="63.8" y1="104.3" x2="79.8" y2="112.3"/>
<line class="st3" x1="60" y1="106.2" x2="70" y2="111.2"/>
<line class="st3" x1="75.5" y1="76.3" x2="91.5" y2="84.2"/>
<line class="st3" x1="71.7" y1="78.2" x2="81.7" y2="83.2"/>
<line class="st3" x1="41.8" y1="93.2" x2="57.7" y2="101.1"/>
<line class="st3" x1="37.9" y1="95.1" x2="48" y2="100.1"/>
<path class="st3" d="M67.9,73.1l-54.4,27.2 M98,58.2L43.3,85.4"/>
<polygon class="st4" points="94.3,66.9 110.2,74.9 95.1,82.4 79.2,74.4 84.3,71.8 84.3,71.8 "/>
</svg>
