<?xml version="1.0" encoding="utf-8"?>
<!-- Generator: Adobe Illustrator 19.1.0, SVG Export Plug-In . SVG Version: 6.00 Build 0)  -->
<svg version="1.1" id="Слой_1" xmlns="http://www.w3.org/2000/svg" xmlns:xlink="http://www.w3.org/1999/xlink" x="0px" y="0px"
	 viewBox="0 0 159 171" style="enable-background:new 0 0 159 171;" xml:space="preserve">
<style type="text/css">
	.st0{fill-rule:evenodd;clip-rule:evenodd;fill:#C6C6C6;}
	.st1{fill-rule:evenodd;clip-rule:evenodd;fill:#FFFFFF;}
	.st2{fill-rule:evenodd;clip-rule:evenodd;fill:#E9484C;stroke:#000000;stroke-width:0.5669;stroke-miterlimit:22.9256;}
	
		.st3{fill-rule:evenodd;clip-rule:evenodd;fill:none;stroke:#000000;stroke-width:0.8504;stroke-linecap:round;stroke-miterlimit:22.9256;}
	.st4{fill-rule:evenodd;clip-rule:evenodd;fill:none;stroke:#000000;stroke-width:0.8504;stroke-miterlimit:22.9256;}
</style>
<polygon class="st0" points="12.3,138.4 66.7,165.6 150.9,123.5 150.6,122.7 139.7,117.4 66.7,153.9 23.7,132.4 "/>
<polygon class="st1" points="32.5,125.6 40.4,109.7 40.4,109.7 91.3,8.8 91.3,42.2 106.8,50 106.8,108.1 91.3,115.8 84.2,112.3 
	84.1,119.4 68.7,127.1 53.4,119.4 29.5,131.4 "/>
<polygon class="st2" points="75.8,90.7 75.8,50.4 91.3,42.2 106.8,50 106.8,108.1 91.3,115.8 84.2,112.3 84.1,94.9 "/>
<line class="st3" x1="12.3" y1="123.7" x2="66.7" y2="150.9"/>
<line class="st3" x1="106.9" y1="86.8" x2="150.9" y2="108.8"/>
<line class="st3" x1="40.4" y1="109.7" x2="12.3" y2="123.7"/>
<line class="st3" x1="53.2" y1="119.4" x2="68.7" y2="127.1"/>
<line class="st3" x1="84.1" y1="119.4" x2="68.7" y2="127.1"/>
<line class="st3" x1="53.2" y1="119.4" x2="53.2" y2="94.9"/>
<line class="st3" x1="68.7" y1="127.1" x2="68.7" y2="102.7"/>
<line class="st3" x1="84.1" y1="119.4" x2="84.1" y2="94.9"/>
<line class="st3" x1="53.2" y1="94.9" x2="68.7" y2="102.7"/>
<line class="st3" x1="84.1" y1="94.9" x2="68.7" y2="102.7"/>
<line class="st3" x1="53.2" y1="94.9" x2="68.7" y2="87.2"/>
<line class="st3" x1="84.1" y1="94.9" x2="68.7" y2="87.2"/>
<line class="st3" x1="84.2" y1="112.3" x2="91.3" y2="115.8"/>
<line class="st3" x1="106.8" y1="108.1" x2="91.3" y2="115.8"/>
<line class="st3" x1="75.8" y1="90.7" x2="75.8" y2="50.4"/>
<line class="st3" x1="91.3" y1="115.8" x2="91.3" y2="57.7"/>
<line class="st3" x1="106.8" y1="108.1" x2="106.8" y2="50"/>
<line class="st3" x1="75.8" y1="50" x2="91.3" y2="57.7"/>
<line class="st3" x1="106.8" y1="50" x2="91.3" y2="57.7"/>
<line class="st3" x1="75.8" y1="50" x2="91.3" y2="42.2"/>
<line class="st3" x1="106.8" y1="50" x2="91.3" y2="42.2"/>
<path class="st3" d="M121.1,123.7l-54.4,27.2 M150.9,108.8L96.5,136"/>
<line class="st4" x1="68.4" y1="53.9" x2="29.6" y2="131.5"/>
<line class="st3" x1="45.8" y1="123.2" x2="29.5" y2="131.4"/>
<line class="st3" x1="53.4" y1="119.4" x2="45.8" y2="123.2"/>
<line class="st4" x1="91.2" y1="8.2" x2="68.4" y2="53.9"/>
<line class="st3" x1="91.3" y1="42.2" x2="91.3" y2="8.2"/>
<line class="st3" x1="12.3" y1="126.7" x2="66.7" y2="153.9"/>
<path class="st3" d="M121.1,126.7l-54.4,27.2 M150.9,111.8L96.5,139"/>
<line class="st4" x1="12.3" y1="123.7" x2="12.3" y2="126.7"/>
<line class="st4" x1="150.9" y1="108.8" x2="150.9" y2="111.8"/>
</svg>
