<?xml version="1.0" encoding="utf-8"?>
<!-- Generator: Adobe Illustrator 19.1.0, SVG Export Plug-In . SVG Version: 6.00 Build 0)  -->
<svg version="1.1" id="Слой_1" xmlns="http://www.w3.org/2000/svg" xmlns:xlink="http://www.w3.org/1999/xlink" x="0px" y="0px"
	 viewBox="0 0 159 140" style="enable-background:new 0 0 159 140;" xml:space="preserve">
<style type="text/css">
	.st0{fill-rule:evenodd;clip-rule:evenodd;fill:#C6C6C6;}
	.st1{fill-rule:evenodd;clip-rule:evenodd;fill:#FFFFFF;stroke:#000000;stroke-width:0.5669;stroke-miterlimit:22.9256;}
	.st2{fill-rule:evenodd;clip-rule:evenodd;fill:#E9484C;stroke:#000000;stroke-width:0.5669;stroke-miterlimit:22.9256;}
	.st3{fill-rule:evenodd;clip-rule:evenodd;fill:#EDEDED;}
	
		.st4{fill-rule:evenodd;clip-rule:evenodd;fill:none;stroke:#000000;stroke-width:0.8504;stroke-linecap:round;stroke-miterlimit:22.9256;}
</style>
<polygon class="st0" points="17.7,113.2 101.9,71.1 146,93.1 61.8,135.2 "/>
<polygon class="st1" points="18.2,47.1 102,4.8 146,26.8 146,80.7 61.8,122.8 17.7,100.8 "/>
<polygon class="st2" points="20,50.7 59.5,70.4 59.4,119.2 20,99.5 "/>
<polygon class="st3" points="20,50.7 45.3,63.3 39.7,65.2 39.7,77.5 30.1,82.3 30.1,94.5 42.2,100.6 51.8,95.8 59.2,99.5 
	59.4,119.2 20,99.5 "/>
<line class="st4" x1="61.8" y1="122.8" x2="61.8" y2="68.9"/>
<line class="st4" x1="17.7" y1="100.8" x2="61.8" y2="122.8"/>
<line class="st4" x1="18.2" y1="47.1" x2="61.8" y2="68.9"/>
<path class="st4" d="M116.1,95.6l-54.4,27.2 M146,80.7l-54.4,27.2"/>
<line class="st4" x1="146" y1="80.7" x2="146" y2="26.8"/>
<line class="st4" x1="102" y1="4.8" x2="146" y2="26.8"/>
<path class="st4" d="M116.1,41.7L61.8,68.9 M146,26.8L91.6,54"/>
<path class="st4" d="M72.1,19.7L17.7,46.9 M101.9,4.8L47.6,32"/>
<line class="st4" x1="30.2" y1="94.5" x2="20.7" y2="99.3"/>
<line class="st4" x1="17.7" y1="100.8" x2="17.7" y2="46.9"/>
<line class="st4" x1="20.1" y1="99.5" x2="59.4" y2="119.2"/>
<line class="st4" x1="20" y1="50.7" x2="59.5" y2="70.4"/>
<line class="st4" x1="59.5" y1="119.2" x2="59.5" y2="70.4"/>
<line class="st4" x1="20" y1="99.5" x2="20" y2="50.7"/>
<line class="st4" x1="72.1" y1="114.8" x2="72.1" y2="66.1"/>
<g>
	<path class="st4" d="M81.4,110.1c0-16.2,0-32.4,0-48.7"/>
	<path class="st4" d="M90.7,105.5c0-16.2,0-32.4,0-48.7"/>
	<path class="st4" d="M100.1,100.8c0-16.2,0-32.4,0-48.7"/>
	<path class="st4" d="M109.4,96.1c0-16.2,0-32.4,0-48.7"/>
	<path class="st4" d="M118.7,91.5c0-16.2,0-32.4,0-48.7"/>
	<path class="st4" d="M128.1,86.8c0-16.2,0-32.5,0-48.7"/>
</g>
<line class="st4" x1="137.4" y1="82.1" x2="137.4" y2="33.5"/>
<path class="st4" d="M116.1,44.1L61.8,71.3 M146,29.2L91.6,56.4"/>
<path class="st4" d="M116.1,92.8l-54.4,27.2 M146,77.8L91.6,105"/>
<line class="st4" x1="30.1" y1="94.5" x2="42.2" y2="100.6"/>
<line class="st4" x1="30.1" y1="82.3" x2="42.2" y2="88.3"/>
<line class="st4" x1="30.1" y1="82.3" x2="30.1" y2="94.5"/>
<line class="st4" x1="42.2" y1="88.3" x2="42.2" y2="100.6"/>
<line class="st4" x1="39.7" y1="77.5" x2="30.1" y2="82.3"/>
<line class="st4" x1="51.8" y1="83.5" x2="42.2" y2="88.3"/>
<line class="st4" x1="51.8" y1="95.8" x2="42.2" y2="100.6"/>
<line class="st4" x1="51.8" y1="83.5" x2="51.8" y2="95.8"/>
<line class="st4" x1="39.7" y1="77.5" x2="51.8" y2="83.5"/>
<line class="st4" x1="39.7" y1="77.5" x2="51.8" y2="83.6"/>
<line class="st4" x1="39.7" y1="65.2" x2="51.8" y2="71.3"/>
<line class="st4" x1="39.7" y1="65.2" x2="39.7" y2="77.5"/>
<line class="st4" x1="51.8" y1="71.3" x2="51.8" y2="83.5"/>
<line class="st4" x1="44.2" y1="63" x2="39.7" y2="65.2"/>
<line class="st4" x1="56.2" y1="69.1" x2="51.8" y2="71.3"/>
<line class="st4" x1="59.4" y1="79.8" x2="51.8" y2="83.6"/>
<line class="st4" x1="51.8" y1="95.8" x2="59.2" y2="99.5"/>
<line class="st4" x1="51.8" y1="83.5" x2="59.5" y2="87.4"/>
</svg>
