<?xml version="1.0" encoding="utf-8"?>
<!-- Generator: Adobe Illustrator 19.1.0, SVG Export Plug-In . SVG Version: 6.00 Build 0)  -->
<svg version="1.1" id="Layer_1" xmlns="http://www.w3.org/2000/svg" xmlns:xlink="http://www.w3.org/1999/xlink" x="0px" y="0px"
	 viewBox="0 0 735 134" style="enable-background:new 0 0 735 134;" xml:space="preserve">
<style type="text/css">
	.st0{clip-path:url(#SVGID_2_);fill:#D74B4B;}
	.st1{clip-path:url(#SVGID_2_);fill-rule:evenodd;clip-rule:evenodd;fill:#D74B4B;}
	
		.st2{clip-path:url(#SVGID_2_);fill:none;stroke:#D74B4B;stroke-width:4.3;stroke-linecap:round;stroke-linejoin:round;stroke-miterlimit:10;}
	
		.st3{clip-path:url(#SVGID_2_);fill:none;stroke:#000000;stroke-width:0.25;stroke-linecap:round;stroke-linejoin:round;stroke-miterlimit:10;}
	.st4{fill-rule:evenodd;clip-rule:evenodd;fill:#D74B4B;}
</style>
<g>
	<defs>
		<polyline id="SVGID_1_" points="-126.6,471.4 -126.6,-123.9 857,-123.9 857,471.4 -126.6,471.4 		"/>
	</defs>
	<clipPath id="SVGID_2_">
		<use xlink:href="#SVGID_1_"  style="overflow:visible;"/>
	</clipPath>
	<path class="st0" d="M238.7,55.1l7.2-20l6.8,20H238.7z M207.9,74.7h23.5l2-5.6h24.1l1.9,5.6h23.8l-22.9-56.7h-27.9L207.9,74.7z"/>
	<path class="st0" d="M307.9,31.9h10.9c3.6,0,6.6,0.4,9,1.3c2.4,0.9,4.1,2.4,5.2,4.4c1.1,2,1.7,4.7,1.7,8.1c0,3.4-0.6,6.1-1.7,8.1
		c-1.1,2-2.9,3.5-5.3,4.4c-2.4,0.9-5.3,1.3-9,1.3h-10.9V31.9z M285.9,17.9v56.8h36.3c7.9,0,14.6-1.1,19.9-3.3
		c5.4-2.2,9.4-5.4,12.1-9.6c2.7-4.2,4.1-9.4,4.1-15.5c0-6.1-1.4-11.3-4.1-15.5c-2.7-4.2-6.7-7.4-12.1-9.6c-5.3-2.2-12-3.3-19.9-3.3
		H285.9z"/>
	<polygon class="st0" points="381.9,74.7 404.8,74.7 430.8,17.9 406.3,17.9 393.7,55.9 381.6,17.9 356.9,17.9 	"/>
	<path class="st0" d="M455.3,55.1l7.2-20l6.8,20H455.3z M424.5,74.7H448l2-5.6h24.1l1.9,5.6h23.7l-22.9-56.7H449L424.5,74.7z"/>
	<polygon class="st0" points="502.9,74.7 523.6,74.7 523.6,41.5 547.4,74.7 572,74.7 572,17.9 550.7,17.9 550.7,50.6 528.8,17.9 
		502.9,17.9 	"/>
	<path class="st0" d="M630.8,41.8h25.1c-0.3-5.4-1.9-10-4.8-13.8c-2.9-3.8-7.1-6.6-12.6-8.6c-5.5-2-12.2-3-20.1-3
		c-12.7,0-22.2,2.5-28.5,7.6c-6.4,5-9.6,12.5-9.6,22.3c0,9.8,3.2,17.3,9.6,22.3c6.4,5,15.9,7.6,28.5,7.6c11.3,0,20.1-2,26.4-6.1
		c6.3-4,10.1-9.9,11.2-17.7h-25.3c-0.7,3.1-2.1,5.4-4.2,6.9c-2.1,1.5-4.8,2.3-8.2,2.3c-4.7,0-8.3-1.3-10.8-3.9
		c-2.5-2.6-3.7-6.4-3.7-11.3c0-5,1.3-8.8,3.7-11.4c2.5-2.6,6.1-3.9,10.8-3.9c3.7,0,6.6,0.9,8.7,2.8
		C629.2,35.6,630.4,38.3,630.8,41.8z"/>
	<polygon class="st0" points="663.6,74.7 724,74.7 724,60.1 685.5,60.1 685.5,52.6 716.4,52.6 716.4,38.7 685.5,38.7 685.5,31.9 
		724,31.9 724,17.9 663.6,17.9 	"/>
	<polygon class="st0" points="25.1,71.7 44.4,71.7 44.4,32 59.3,71.9 76.7,71.9 90.2,32 90.2,71.8 110.8,71.8 110.8,18.1 79,18.1 
		67.9,49.5 56.4,18.1 25.1,18.1 	"/>
	<polygon class="st0" points="175.4,71.8 156.7,71.8 156.7,31.9 141.8,71.6 124.4,71.6 110.8,31.9 110.8,71.8 90.2,71.8 90.2,18.1 
		122,18.1 133.2,49.3 144.7,18.1 175.4,18.1 	"/>
	<rect x="18.6" y="71.7" class="st1" width="163.9" height="15.6"/>
	<path class="st1" d="M49.3,101.2V83.1c0.4-3.5,3.7-6.2,7.8-6.2c4.1,0,7.4,2.7,7.8,6.2v18.1H49.3z"/>
	<path class="st1" d="M137,101.2V83.1c0.4-3.5,3.6-6.2,7.7-6.2c4,0,7.3,2.7,7.6,6.2v18.1H137z"/>
	<path class="st2" d="M17,19.9v71.3c0,6.5,4.7,11.9,10.4,11.9h145.1c5.8,0,10.4-5.3,10.4-11.9V19.9c0-6.5-4.7-11.9-10.4-11.9H27.5
		C21.7,8,17,13.3,17,19.9z"/>
	<path class="st3" d="M49.3,88.8"/>
	<path class="st3" d="M724,74.9"/>
	<path class="st3" d="M64.8,88.7"/>
	<path class="st3" d="M15.2,88.8"/>
	<path class="st3" d="M620.4,83.2"/>
	<path class="st0" d="M604.9,18"/>
	<path class="st0" d="M723.6,18"/>
</g>
<path class="st4" d="M613.5,127.5l-3.5-7.8c-1.2-2.3-0.7-5.3,1.8-6.4l72.7-30.9h35.3c3.8,0,4.1,2.6,1.1,3.9l-100.8,42.7
	C617.6,130,614.7,129.9,613.5,127.5z"/>
<path class="st4" d="M583.3,110.4l-3.2-7.5c-1.2-2.3-2.2-4.9,1.2-6.7l31.8-13.8h35.3c3.8,0,4.1,2.6,1.1,3.9l0,0l-59.9,25.4
	C587,112.7,584.5,112.7,583.3,110.4z"/>
</svg>
