<?xml version="1.0" encoding="utf-8"?>
<!-- Generator: Adobe Illustrator 21.1.0, SVG Export Plug-In . SVG Version: 6.00 Build 0)  -->
<svg version="1.1" id="Layer_1" xmlns="http://www.w3.org/2000/svg" xmlns:xlink="http://www.w3.org/1999/xlink" x="0px" y="0px"
	 viewBox="0 0 31 46" style="enable-background:new 0 0 31 46;" xml:space="preserve">
<style type="text/css">
	.st0{fill-rule:evenodd;clip-rule:evenodd;fill:#231F20;}
</style>
<path class="st0" d="M11.6,0.6c-1.3,0.3-2.4,0.8-3.4,1.3C7.5,2.3,6.7,2.9,6.1,3.4C6.1,3.4,6,3.4,6,3.5c-0.1,0-0.1,0.1-0.2,0.1
	C5.8,3.7,5.7,3.7,5.7,3.8L5.2,4.2C5.2,4.3,5.1,4.3,5,4.4L4.4,5.2c-6,7.2-2.9,15.8,1,23l0.8,1.6c0.5,0.9,1.2,2.2,1.7,3.1
	c0.2,0.3,0.3,0.5,0.4,0.8l1.3,2.3c0.8,1.5,1.7,3,2.6,4.5c0.3,0.5,0.6,1,0.9,1.5c0.3,0.5,0.6,1,0.9,1.5c0.5,0.7,0.9,1.4,1.4,2.1
	c0.1,0.1,0.2,0.4,0.3,0.5l0.1,0.1l0.1-0.1c0.1-0.2,0.3-0.5,0.3-0.5c0.4-0.7,0.9-1.4,1.3-2.1c0.3-0.5,0.6-1,0.9-1.5
	c0.3-0.5,0.6-1,0.9-1.5c0.8-1.5,1.8-3,2.6-4.5l1.3-2.3c0.1-0.3,0.3-0.5,0.4-0.8c0.5-0.9,1.2-2.2,1.7-3.1l0.8-1.6
	c3.9-7.2,7-15.8,1-23l-0.7-0.8c-0.1-0.1-0.1-0.1-0.2-0.2l-0.5-0.4c-0.1-0.1-0.1-0.1-0.2-0.1c-0.1-0.1-0.1-0.1-0.2-0.1
	c-0.1-0.1-0.1-0.1-0.2-0.2c-0.6-0.5-1.4-1.1-2.1-1.4c-1-0.5-2.1-1-3.4-1.3C17-0.2,14.4-0.2,11.6,0.6 M15.7,10.8c2,0,3.6,1.6,3.6,3.5
	c0,2-1.6,3.5-3.6,3.5c-1.9,0-3.5-1.6-3.5-3.5C12.2,12.4,13.8,10.8,15.7,10.8"/>
</svg>
